<?xml version="1.0" encoding="UTF-8"?>
<svg id="Capa_1" data-name="Capa 1" xmlns="http://www.w3.org/2000/svg" viewBox="0 0 916.37 999.38">
  <defs>
    <style>
      .cls-1 {
        stroke-width: 0px;
      }
    </style>
  </defs>
  <path class="cls-1" d="m434.11,1.34c-8.2,1-16.3,2.3-17.8,3-1.6.6-4.1,1.1-5.6,1.1-3,0-20.3,5-25.9,7.5-1.8.8-3.9,1.5-4.7,1.5-1.3,0-16.8,6.8-21,9.2-1.1.7-4.2,2.4-7,3.8-2.7,1.4-6.9,3.8-9.2,5.3-2.4,1.5-4.5,2.7-4.8,2.7-.9,0-14.9,9.9-17.7,12.5-1.4,1.4-3,2.5-3.5,2.5-2.4.1-30,27.6-40.9,40.6-12.1,14.6-30.7,46.1-38.9,65.9-4.3,10.4-7.8,20.5-10.5,30.5-1.7,6.3-3.6,12.8-4.2,14.5-.6,1.6-1.2,4.3-1.4,6-.3,1.6-1.1,6.8-1.9,11.5-3.1,18.3-3.7,24.2-4.2,42.5-.6,22.9,0,27.9,3.99,49.5,1.4,7.5,2,9.7,5.8,24,3.2,11.8,11.3,33.1,17.1,44.7.1.21.2.41.29.61,1.87,3.96-.94,8.53-5.32,8.63-9.33.2-25.38.39-43.47.46-49.2.3-51.6.4-57.6,2.4-19,6.4-33.5,18.4-41.3,34.3-4.1,8.4-5.7,12.6-7,18.4-.4,2.2-.8,42.6-.9,89.7v82.65c0,1.92-.91,3.72-2.45,4.86l-.25.19c-1.6,1.1-3.5,2.7-4.3,3.4-.8.8-4,3.2-7.1,5.4-6.3,4.7-22.5,20.5-28.2,27.5-4.1,5.2-16.7,23.4-16.7,24.2,0,.3-1.1,2.1-2.3,4-8.1,11.9-17.2,35.8-22.3,59.1l-2.75,12.35c-.1.43-.15.87-.15,1.32v100.33c0,96.3.1,101.3,1.9,105.5,3.1,7.5,5.1,10.8,9.7,16.4,6.5,7.9,14.8,13.1,25.4,16,5.5,1.6,39,1.7,424.5,1.4l418.5-.3s0,0,0,0l7.8-3.9c11.4-5.6,20.2-14.6,24.7-25.1l3-6.85c.33-.76.5-1.58.51-2.4l.3-86.75c.3-84.8-.3-109.6-2.8-125.5-3.3-20.6-7.2-32.4-17.4-53-5.74-11.58-14.41-25.9-17.27-28.78-.19-.19-.37-.38-.54-.59-.59-.74-1.79-2.37-2.99-4.13-5.5-8.1-28.4-30.1-40.1-38.4l-2.2-1.59c-1.57-1.14-2.5-2.96-2.5-4.9v-80.51c0-90.3-.1-92.2-5.4-105.1-4.6-11.4-16.7-25.3-27.4-31.7-5.1-3-12.2-6.3-13.7-6.3-.7,0-3-.8-5.1-1.7-3.5-1.6-9.2-1.8-54.9-2-28-.2-51.3-.7-51.7-1.1s.1-2.6,1.2-4.7c1.1-2.2,2-4.3,2-4.7,0-.5,1.3-3.6,2.9-7.1,5-10.6,8.8-20.8,12.1-31.7,6.1-20.5,7.6-27.2,9-40.1.5-4.1,1.4-9.5,2-12,2-7.1,2.71-45.5.71-54.2-.9-3.8-1.6-8.6-1.6-10.9s-.6-6.3-1.4-9.1c-.7-2.9-2.1-8.8-3-13.2-4.8-22.4-18-55.4-31.6-78.5-10.2-17.3-28.9-40.9-43.3-54.5-12.2-11.6-18.7-17.5-19.2-17.5-.3,0-3.1-2-6.3-4.4-11.8-9-22.9-15.9-34.7-21.6-18.5-8.9-31.7-14.2-40.5-16-1.9-.4-6.2-1.5-9.5-2.4-20.5-5.7-52.8-7.6-77-4.7Zm48.5,42.2c1.9.5,5.3.9,7.5.9s6,.7,8.5,1.5,9.9,3.1,16.5,5c19.2,5.6,43.1,18.4,60.8,32.5,9.1,7.2,27.9,25.8,33.8,33.5,9.6,12.4,19.7,28.5,27.2,43.4,2.1,4.2,4.3,8.5,4.9,9.5.58,1.06,1.34,2.95,1.84,4.34.04.11.07.21.1.32.49,1.63,2.42,7.13,4.35,12.44s4,11.6,4.4,13.6c.4,1.9,1.1,4,1.4,4.6.7,1.1,2.5,10.1,5.3,25.8,3.6,20.4,2.49,44.3-1.11,64-3.8,20.6-5.5,27.1-10.5,41.5-5.2,14.9-5.8,16.4-12.9,30.2-7.6,14.7-11.5,21.2-13.2,22.3-1.5.9-324.5.9-325.9,0-3.1-1.9-10.9-15.8-20.5-37-3.5-7.6-8.3-21.5-10.6-30.5-.4-1.9-1.8-7.3-3-12-2.2-8.9-3.2-15.4-5.1-33.5-1.2-12.3.51-29.8,2.11-38.5.5-3,1.7-9.6,2.6-14.5.9-5,2.2-11,2.9-13.5.8-2.5,2.1-7.4,3.1-11,2.1-7.7,4.6-15.1,5.5-16.5.4-.6,1.1-2.1,1.5-3.5s1.4-4.1,2.3-6c8.9-20.3,17.4-34.9,28.6-49.3,3.4-4.3,7.4-9.5,8.9-11.5,8.1-10.6,38.1-36.3,48.7-41.7,1.9-1,4.9-2.8,6.5-4,4.8-3.5,28.1-13.5,39.5-16.9,7.9-2.3,25.2-5.6,34.5-6.6,9.3-.9,34.4-.2,39.5,1.1Zm290.09,390.7c5.8,2.7,12.8,10.6,14.5,16.4,1,3.4,1.3,43.6,1.3,203.1v197.42c0,.91-.2,1.8-.6,2.62l-1.9,3.96c-3.4,7-5.2,8.9-11.7,12.6l-4.12,2.32c-.91.51-1.93.78-2.97.78H150.62c-.8,0-1.6-.16-2.34-.47l-3.88-1.63c-6.8-3-13.5-10.6-14.9-17.1-.7-3.3-1-69.1-1-203.1,0-194.7.1-198.3,2-202.5,1.1-2.4,2.9-5.5,3.9-6.8,3.1-4,10.3-8.7,14.1-9.4,1.9-.3,142.1-.6,311.5-.5h306.6c.92,0,1.83.21,2.66.62l3.44,1.68ZM86.8,769.14c.3,89.6.4,92,2.4,98.3,2.2,6.8,6,14.4,9.9,19.7,3.1,4.1,3,4.7-.8,9.3-3.1,3.7-5.4,7.7-9.2,16.4-2.1,4.8-3.2,27.1-1.8,36.6.07.46.13.91.19,1.34.44,3.49-2.19,6.6-5.71,6.77s-8.88.29-14.78.29c-17.7-.1-19.7-.3-21.6-2-5-4.4-4.9-3-4.9-87.1,0-79.2.8-104.2,3.6-113.2.8-2.5,1.4-5.5,1.4-6.7,0-3.1,6.2-21.7,9.5-28.4,5.5-11.1,7-13.7,13.2-23,6.6-10,15.2-20,17.1-20,.8,0,1.2,24.6,1.5,91.7Zm755.1-80.9c10.6,14,20.8,31.5,22.7,38.7.4,1.6,1.5,5,2.4,7.5,8.5,22.8,9.2,32.7,9,136.3l-.1,78.3c0,1.6-.64,3.14-1.77,4.27l-1.23,1.23-1.28,1.24c-1.11,1.07-2.58,1.68-4.11,1.7l-17.31.26c-10.9.1-20.3,0-20.9-.4-.7-.4-.8-1.9-.3-4,1.4-6.5,1.7-27.3.5-32.9-1.9-8.9-6.2-17.7-13.5-27.6-.7-1-.5-2.1.4-3.6.8-1.3,1.9-3.2,2.5-4.3s1.9-3.2,2.9-4.7c1-1.4,2.7-5,3.9-8,4.7-12.2,4.7-13.1,4.8-105.4,0-31.81.13-59.91.34-75.29.08-5.75,7.38-8.16,10.86-3.58.07.09.14.18.21.27Zm-62.4,229.6c6.3,3,9,8,9,17.1s-2.8,15-8,17.7c-3.3,1.7-15.7,1.8-323.1,1.8H140.1c-1.48,0-2.91-.54-4.01-1.52l-2.68-2.38-2.45-2.18c-1.24-1.1-1.98-2.66-2.03-4.32l-.21-6.3c-.5-11.3,1-15.2,7.2-19.1l3-1.94c.98-.63,2.11-.96,3.28-.96h631.55c.9,0,1.79.2,2.61.59l3.16,1.51Z"/>
  <path class="cls-1" d="m497,500.88c-3.1,1.1-8.5,5.5-8.5,7,0,.4-1.3,3.6-2.8,7-3.3,7.3-9.9,22.2-11.4,25.8-.58,1.36-1.63,3.66-2.24,5.35-.04.11-.08.2-.12.3-.72,1.65-2.07,4.93-3.04,7.35s-2.4,5.2-3.1,6.1c-.7.8-1.3,2-1.3,2.5,0,1.3-8.7,21.8-16.3,38.4-1.9,4.1-4,9.2-4.6,11.2-.7,2.1-1.7,4-2.2,4.3-.5.4-.9,1.3-.9,2.1,0,.7-2,5.6-4.4,10.6-2.3,5.1-6,13.6-8.1,18.8s-4.1,9.9-4.5,10.5c-.3.5-2.4,5-4.4,10-2.1,4.9-4.2,9.4-4.7,9.9-.5.6-.9,1.9-.9,3.1s-.4,2.5-.9,3.1c-.5.5-2.8,5.4-5.1,10.8s-4.5,10.6-5,11.5c-2.6,5.3-7,15.2-7,16,0,1-2.7,7.2-8.1,18.9-2.2,4.6-3.9,8.7-3.9,9.2,0,.4-1.3,3.5-3,6.8-1.6,3.4-3,6.5-3,7.1s-.9,2.7-1.9,4.8c-5.6,10.9-15,33.9-15.7,38.5-2,12.4,13,27.7,24.8,25.3,4.7-1,10-4.9,12-8.7,3.8-7.4,10.8-23,10.8-24.2,0-.7.7-2.1,1.5-3.2.8-1,1.5-2.5,1.5-3.1,0-.7,1.7-5,3.9-9.5,2.1-4.6,5.5-12.4,7.5-17.3,5.1-12.2,9-21.4,10.6-24.6.4-.8,4.6-10.5,9.3-21.5,4.7-10.9,9.7-22.3,11.1-25.1,1.5-2.9,2.6-5.7,2.6-6.2,0-1,2.7-7.2,8.1-18.9,2.2-4.6,3.9-8.6,3.9-8.8,0-.3,1.4-3.5,3-7.1,1.7-3.5,3-6.8,3-7.2,0-.5,2.2-5.5,4.9-11.3s5.6-12.5,6.4-14.9c.9-2.4,2.7-6.8,4.1-9.6,1.4-2.9,2.6-5.7,2.6-6.1,0-.5,1.2-3.1,2.6-5.8s3.5-7.4,4.7-10.4c1.1-3,2.6-6.4,3.3-7.5.8-1.1,1.4-2.5,1.4-3.2,0-.8,1.3-4.1,2.9-7.6,4.4-9.3,10.1-22.4,10.1-23.1,0-.4,1.1-3.1,2.4-5.9,5.3-11.7,6.1-14.2,6-20.2-.2-14.9-14.6-25.9-27.9-21.3Z"/>
  <path class="cls-1" d="m324.4,572.55c-2,1-9.7,8.5-17.2,16.7-7.5,8.1-17.8,19.3-22.8,24.8-5.1,5.5-13.5,14.6-18.8,20.1-19,20.1-21.9,24.3-22,31.6-.1,3.5,2.4,11.7,3.9,12.8.4.3,2.6,2.7,5,5.5,2.3,2.7,9.8,10.8,16.4,18,13.2,14,20.5,21.9,36.1,38.9,16.9,18.4,20.9,21.6,27.3,21.6,3.8,0,10.8-3.1,15-6.7,3.5-3,7.2-11.9,7.2-17.3,0-5-5.3-12.2-20.9-28.5-4.2-4.4-11.5-12.3-16.3-17.5-4.7-5.2-11.8-12.9-15.7-17s-7.1-8.2-7.1-9,4.3-6.2,9.6-12c15.3-16.7,26.8-29,32.6-35.1,12.8-13.4,17.8-20.7,17.8-26.2,0-4.3-4-13.5-7.1-16.3-6.8-6.2-16.2-8-23-4.4Z"/>
  <path class="cls-1" d="m555,572.27c-7.5,3.9-13.4,12.3-13.5,19.2,0,8.9,1.8,11.5,26,37.1,23.2,24.7,34,36.8,34,38.3,0,.9-1.2,2.6-2.8,3.9-1.5,1.2-5.6,5.5-9.2,9.3-3.6,3.9-11.2,12.2-17,18.4s-11.4,12.3-12.5,13.6c-1.1,1.2-5.1,5.6-9,9.8-7,7.7-9.5,12.7-9.5,19.3,0,10.1,11.6,21.4,22.1,21.4,6.1,0,11-3.9,26.9-21,1.4-1.5,4.6-4.9,7.1-7.6s13.2-14.4,23.9-25.9c10.7-11.6,20.4-21.9,21.6-23s3.6-4.3,5.3-7.1c2.6-4.3,3.1-6.1,3.1-11.6,0-9.4-2.7-13.1-32-43.7-1.3-1.4-5.1-5.5-8.4-9.1s-10.5-11.5-16.1-17.5c-5.6-6.1-12.4-13.4-15.1-16.4-2.7-2.9-6.6-6.2-8.6-7.2-4.5-2.3-12.2-2.4-16.3-.2Z"/>
</svg>